# xmcd
#
# Track frame offsets: 
#        150
#        16984
#        38335
#        52372
#        71908
#        93939
#        113503
#        134807
#        153326
#        173228
#
# Disc length: 2570 seconds
#
# Revision: 0
# Processed by: cddbd v1.5.2PL0 Copyright (c) Steve Scherf et al.
# Submitted via: ExactAudioCopyFreeDBPlugin 1.0
#
DISCID=840a080a
DTITLE=อารักษ์ อาภากาศ - คนเดินดิน
DYEAR=1993
DGENRE=Country
TTITLE0=น้อยก็หนึ่ง
TTITLE1=คนเดินดิน
TTITLE2=จะหยิบยอดเมฆ
TTITLE3=ฒ.ผู้เฒ่า ด.เด็ก
TTITLE4=ไก่ชนคนสู้
TTITLE5=กรุงเทพฯ รมควัน
TTITLE6=แม่นางชาวนา
TTITLE7=โลกนิรันดร์
TTITLE8=เงาดวงจันทร์
TTITLE9=อโหสิกรรม
EXTD=
EXTT0=
EXTT1=
EXTT2=
EXTT3=
EXTT4=
EXTT5=
EXTT6=
EXTT7=
EXTT8=
EXTT9=
PLAYORDER=
